# xmcd
#
# Track frame offsets: 
#        150
#        13631
#        27370
#        38863
#        50370
#        61582
#        73924
#        86206
#        95990
#        107139
#        118830
#        130545
#        141713
#        151690
#        164187
#        174969
#        185489
#        195210
#        206739
#        218423
#        228729
#        240493
#        250950
#        263008
#        273997
#        284324
#        296452
#        307612
#
# Disc length: 4247 seconds
#
# Revision: 0
# Processed by: cddbd v1.5.2PL0 Copyright (c) Steve Scherf et al.
# Submitted via: ExactAudioCopyFreeDBPlugin 1.0
#
DISCID=9610951c
DTITLE=Little Junior Parker - Ride With Me, Baby [CD2]
DYEAR=2012
DGENRE=Blues
TTITLE0=That's Alright
TTITLE1=Pretty Baby (1956)
TTITLE2=Peaches
TTITLE3=Pretty Little Doll
TTITLE4=Wondering
TTITLE5=Sitting And Thinking
TTITLE6=Barefoot Rock
TTITLE7=What Did I Do
TTITLE8=Sometimes
TTITLE9=Sweet Home Chicago
TTITLE10=I'm Holding On
TTITLE11=Five Long Years
TTITLE12=Blue Letter
TTITLE13=Stranded
TTITLE14=Dangerous Woman
TTITLE15=Belinda Marie
TTITLE16=You're On My Mind
TTITLE17=The Next Time
TTITLE18=That's Just Alright
TTITLE19=I'll Learn To Love Again
TTITLE20=Stand By Me
TTITLE21=I'll Forget About You
TTITLE22=Driving Wheel
TTITLE23=Seven Days
TTITLE24=How Long Can This Go On
TTITLE25=In The Dark
TTITLE26=Mary Jo
TTITLE27=Annie Get Your Yo-Yo
EXTD=
EXTT0=
EXTT1=
EXTT2=
EXTT3=
EXTT4=
EXTT5=
EXTT6=
EXTT7=
EXTT8=
EXTT9=
EXTT10=
EXTT11=
EXTT12=
EXTT13=
EXTT14=
EXTT15=
EXTT16=
EXTT17=
EXTT18=
EXTT19=
EXTT20=
EXTT21=
EXTT22=
EXTT23=
EXTT24=
EXTT25=
EXTT26=
EXTT27=
PLAYORDER=
